<svg width="46" height="46" viewBox="0 0 46 46" fill="none" xmlns="http://www.w3.org/2000/svg">
<path d="M0 5C0 2.23858 2.23858 0 5 0H41C43.7614 0 46 2.23858 46 5V34.4286C46 37.19 43.7614 39.4286 41 39.4286H21.0163C19.8227 39.4286 18.6685 39.8555 17.7623 40.6323L15.3333 42.7143L15.0025 42.9979C13.3608 44.4051 10.8138 43.6473 10.2083 41.5715C9.83797 40.3016 8.67392 39.4286 7.35114 39.4286H5C2.23858 39.4286 0 37.19 0 34.4286V5Z" fill="black"/>
<path d="M9.25 29L9.1 28.025C9.98333 27.875 10.5167 27.7083 10.7 27.525C10.9 27.3417 11 26.9917 11 26.475V14.2C11 13.6833 10.9 13.3333 10.7 13.15C10.5167 12.9667 9.98333 12.8 9.1 12.65L9.25 11.675H15.375L15.475 12.65L13.925 12.95C13.5917 13.0167 13.425 13.2333 13.425 13.6V27.725L15.65 27.7C17.5 27.6667 18.5833 27.6083 18.9 27.525C19.1667 27.4417 19.6333 26.1583 20.3 23.675L21.675 23.8C21.6917 24.0833 21.7 24.6667 21.7 25.55C21.7 26.4167 21.6083 27.5667 21.425 29H9.25ZM29.2654 29.225L23.6904 13.75C23.5571 13.4 23.3988 13.175 23.2154 13.075C23.0321 12.9583 22.6321 12.825 22.0154 12.675L22.1904 11.675H28.1404L28.2404 12.7L26.4654 13.175C26.3488 13.1917 26.2904 13.2417 26.2904 13.325C26.2904 13.3917 26.3238 13.525 26.3904 13.725L30.2404 25.05C30.3904 25.4667 30.4654 25.75 30.4654 25.9H30.7154L34.6154 14.775C34.8488 14.125 34.9654 13.7 34.9654 13.5C34.9654 13.1833 34.3571 12.9083 33.1404 12.675L33.2904 11.675H38.2154L38.3154 12.725C37.6321 12.8583 37.1988 13.0083 37.0154 13.175C36.8321 13.3417 36.6571 13.6583 36.4904 14.125L30.9904 29.225H29.2654Z" fill="white"/>
</svg>
